<?xml version="1.0" encoding="UTF-8" standalone="no"?>
<!DOCTYPE svg PUBLIC "-//W3C//DTD SVG 1.1//EN" "http://www.w3.org/Graphics/SVG/1.1/DTD/svg11.dtd">
<svg width="100%" height="100%" viewBox="0 0 24 24" version="1.1" xmlns="http://www.w3.org/2000/svg" xmlns:xlink="http://www.w3.org/1999/xlink" xml:space="preserve" xmlns:serif="http://www.serif.com/" style="fill-rule:evenodd;clip-rule:evenodd;stroke-linecap:round;stroke-linejoin:round;stroke-miterlimit:2;">
    <circle cx="12" cy="12" r="12" style="fill:rgb(226,232,240);"/>
    <g transform="matrix(0.716967,0,0,0.716967,3.3964,3.3964)">
        <path d="M4,6C4,5.448 4.448,5 5,5L19,5C19.552,5 20,5.448 20,6C20,6.552 19.552,7 19,7L5,7C4.448,7 4,6.552 4,6Z" style="fill:rgb(15,23,42);fill-rule:nonzero;stroke:rgb(15,23,42);stroke-width:0.46px;"/>
    </g>
    <g transform="matrix(0.716967,0,0,0.716967,3.3964,3.3964)">
        <path d="M4,18C4,17.448 4.448,17 5,17L19,17C19.552,17 20,17.448 20,18C20,18.552 19.552,19 19,19L5,19C4.448,19 4,18.552 4,18Z" style="fill:rgb(15,23,42);fill-rule:nonzero;stroke:rgb(15,23,42);stroke-width:0.46px;"/>
    </g>
    <g transform="matrix(0.389943,-0.389943,0.389943,0.389943,0.186697,10.8302)">
        <path d="M5,11C4.448,11 4,11.448 4,12C4,12.552 4.448,13 5,13L13,13C13.552,13 14,12.552 14,12C14,11.448 13.552,11 13,11L5,11Z" style="fill:rgb(15,23,42);fill-rule:nonzero;stroke:rgb(15,23,42);stroke-width:0.59px;"/>
    </g>
    <g transform="matrix(0.389943,0.389943,-0.389943,0.389943,9.54533,3.81119)">
        <path d="M5,11C4.448,11 4,11.448 4,12C4,12.552 4.448,13 5,13L13,13C13.552,13 14,12.552 14,12C14,11.448 13.552,11 13,11L5,11Z" style="fill:rgb(15,23,42);fill-rule:nonzero;stroke:rgb(15,23,42);stroke-width:0.59px;"/>
    </g>
    <g transform="matrix(0.716967,0,0,0.716967,3.6982,3.3964)">
        <path d="M11.974,11C11.422,11 10.974,11.448 10.974,12C10.974,12.552 11.422,13 11.974,13L18.579,13C19.131,13 19.579,12.552 19.579,12C19.579,11.448 19.131,11 18.579,11L11.974,11Z" style="fill:rgb(15,23,42);fill-rule:nonzero;stroke:rgb(15,23,42);stroke-width:0.46px;"/>
    </g>
</svg>
